<svg xmlns="http://www.w3.org/2000/svg" viewBox="0 0 820 430" role="img" aria-label="Employment coefficients across core and full matched samples"><style>text{font-family:system-ui,sans-serif;fill:#282822}.muted{fill:#666;font-size:12px}.axis{stroke:#cfc7cb;stroke-width:1}.teal{fill:#157c87}.pink{fill:#bd1763}.burg{fill:#871548}.gold{fill:#d6a700}</style><text x="12" y="65" fill="#871548" style="font-weight:700;font-size:14px">High-coverage core periods</text><text x="28" y="97" style="font-size:13px;font-weight:400">pooled ols</text><line x1="336.1588342008768" x2="673.1117172019101" y1="93" y2="93" stroke="#111111" stroke-width="2"/><circle cx="504.6352757013934" cy="93" r="5" fill="#111111"/><text x="28" y="135" style="font-size:13px;font-weight:400">country fe</text><line x1="409.8780174110074" x2="593.0354098113256" y1="131" y2="131" stroke="#111111" stroke-width="2"/><circle cx="501.45671361116655" cy="131" r="5" fill="#111111"/><text x="28" y="173" style="font-size:13px;font-weight:400">twfe + preferred</text><line x1="464.787716225564" x2="761.5602948256209" y1="169" y2="169" stroke="#871548" stroke-width="2"/><circle cx="613.1740055255924" cy="169" r="6" fill="#871548"/><text x="12" y="223" fill="#871548" style="font-weight:700;font-size:14px">Full matched sample</text><text x="28" y="255" style="font-size:13px;font-weight:400">pooled ols</text><line x1="292.61588032843315" x2="682.5692074355554" y1="251" y2="251" stroke="#111111" stroke-width="2"/><circle cx="487.5925438819943" cy="251" r="5" fill="#111111"/><text x="28" y="293" style="font-size:13px;font-weight:400">country fe</text><line x1="396.2360158603221" x2="579.9918294683876" y1="289" y2="289" stroke="#111111" stroke-width="2"/><circle cx="488.1139226643548" cy="289" r="5" fill="#111111"/><text x="28" y="331" style="font-size:13px;font-weight:400">twfe</text><line x1="436.5299711018421" x2="735.451447566712" y1="327" y2="327" stroke="#111111" stroke-width="2"/><circle cx="585.990709334277" cy="327" r="5" fill="#111111"/><text x="210" y="420" class="muted">0</text><text x="495" y="420" text-anchor="middle" class="muted">Employment coefficient</text></svg>
